<?xml version="1.0" standalone="no"?><!DOCTYPE svg PUBLIC "-//W3C//DTD SVG 1.1//EN" "http://www.w3.org/Graphics/SVG/1.1/DTD/svg11.dtd"><svg t="1539514115388" class="icon" style="" viewBox="0 0 1024 1024" version="1.1" xmlns="http://www.w3.org/2000/svg" p-id="4917" xmlns:xlink="http://www.w3.org/1999/xlink" width="200" height="200"><defs><style type="text/css"></style></defs><path d="M512 1024C229.691077 1024 0 794.308923 0 512S229.691077 0 512 0a39.384615 39.384615 0 0 1 0 78.769231A433.703385 433.703385 0 0 0 78.769231 512C78.769231 750.828308 273.092923 945.230769 512 945.230769 750.828308 945.230769 945.230769 750.828308 945.230769 512a39.384615 39.384615 0 0 1 78.769231 0c0 282.308923-229.691077 512-512 512z" fill="#8a8a8a" p-id="4918"></path><path d="M511.212308 157.538462a39.384615 39.384615 0 0 0-39.384616 39.384615v315.076923a39.384615 39.384615 0 0 0 78.769231 0v-315.076923a39.384615 39.384615 0 0 0-39.384615-39.384615z" fill="#8a8a8a" p-id="4919"></path><path d="M747.52 472.615385h-236.307692a39.384615 39.384615 0 0 0 0 78.76923h236.307692a39.384615 39.384615 0 0 0 0-78.76923z" fill="#8a8a8a" p-id="4920"></path></svg>